<?xml version="1.0" encoding="UTF-8"?>
<svg xmlns="http://www.w3.org/2000/svg" xmlns:xlink="http://www.w3.org/1999/xlink" width="337.5pt" height="112.499997pt" viewBox="0 0 337.5 112.499997" version="1.2">
<defs>
<clipPath id="clip1">
  <path d="M 2 0 L 335 0 L 335 106.402344 L 2 106.402344 Z M 2 0 "/>
</clipPath>
<clipPath id="clip2">
  <path d="M 292.734375 16.605469 C 294.644531 16.605469 296.300781 18.265625 296.300781 20.183594 C 296.300781 22.097656 294.644531 23.757812 292.734375 23.757812 C 290.820312 23.757812 289.164062 22.097656 289.164062 20.183594 C 289.164062 18.265625 290.820312 16.605469 292.734375 16.605469 Z M 314.136719 48.539062 C 314.136719 54.160156 318.597656 58.628906 324.203125 58.628906 C 329.808594 58.628906 334.269531 54.160156 334.269531 48.539062 C 334.269531 42.917969 329.808594 38.449219 324.203125 38.449219 C 318.597656 38.449219 314.136719 42.917969 314.136719 48.539062 Z M 22.363281 57.863281 C 22.363281 52.242188 17.902344 47.773438 12.296875 47.773438 C 6.691406 47.773438 2.230469 52.371094 2.230469 57.863281 C 2.230469 63.484375 6.691406 67.953125 12.296875 67.953125 C 17.902344 67.953125 22.363281 63.484375 22.363281 57.863281 Z M 92.441406 4.472656 C 92.441406 6.898438 94.476562 8.941406 96.898438 8.941406 L 69.25 8.941406 C 62.753906 8.941406 57.402344 14.304688 57.402344 20.820312 C 57.402344 27.335938 62.753906 32.699219 69.25 32.699219 L 39.5625 32.699219 C 37.652344 32.699219 35.996094 34.359375 35.996094 36.277344 C 35.996094 38.191406 37.652344 39.851562 39.5625 39.851562 L 77.789062 39.851562 C 74.730469 39.851562 72.179688 42.40625 72.179688 45.472656 C 72.179688 48.539062 74.730469 51.09375 77.789062 51.09375 L 36.886719 51.09375 C 32.171875 51.09375 28.351562 54.925781 28.351562 59.652344 C 28.351562 64.378906 32.171875 68.210938 36.886719 68.210938 L 66.828125 68.210938 C 62.878906 68.210938 59.695312 71.402344 59.695312 75.363281 C 59.695312 79.324219 62.878906 82.515625 66.828125 82.515625 L 112.1875 82.515625 C 109.769531 82.515625 107.730469 84.558594 107.730469 86.988281 C 107.730469 89.414062 109.769531 91.457031 112.1875 91.457031 L 79.570312 91.457031 C 75.492188 91.457031 72.179688 94.777344 72.179688 98.867188 C 72.179688 102.953125 75.492188 106.277344 79.570312 106.277344 L 239.472656 106.277344 C 241.894531 106.277344 243.933594 104.230469 243.933594 101.804688 C 243.933594 99.378906 241.894531 97.332031 239.472656 97.332031 L 267.25 97.332031 C 273.75 97.332031 279.101562 91.96875 279.101562 85.453125 C 279.101562 78.941406 273.75 73.574219 267.25 73.574219 L 296.9375 73.574219 C 298.847656 73.574219 300.503906 71.914062 300.503906 70 C 300.503906 68.082031 298.847656 66.421875 296.9375 66.421875 L 258.714844 66.421875 C 261.773438 66.421875 264.320312 63.867188 264.320312 60.800781 C 264.320312 57.734375 261.773438 55.179688 258.714844 55.179688 L 299.613281 55.179688 C 304.328125 55.179688 308.148438 51.347656 308.148438 46.625 C 308.148438 41.898438 304.328125 38.066406 299.613281 38.066406 L 269.671875 38.066406 C 273.621094 38.066406 276.804688 34.871094 276.804688 30.910156 C 276.804688 26.953125 273.621094 23.757812 269.671875 23.757812 L 224.3125 23.757812 C 226.734375 23.757812 228.773438 21.714844 228.773438 19.289062 C 228.773438 16.859375 226.734375 14.816406 224.3125 14.816406 L 256.929688 14.816406 C 261.007812 14.816406 264.320312 11.496094 264.320312 7.410156 C 264.320312 3.320312 261.007812 0 256.929688 0 L 97.027344 0 C 94.351562 0 92.441406 2.042969 92.441406 4.472656 Z M 47.335938 86.222656 C 47.335938 84.304688 45.679688 82.644531 43.769531 82.644531 C 41.855469 82.644531 40.199219 84.304688 40.199219 86.222656 C 40.199219 88.136719 41.855469 89.796875 43.769531 89.796875 C 45.679688 89.796875 47.335938 88.136719 47.335938 86.222656 Z M 47.335938 86.222656 "/>
</clipPath>
<linearGradient id="linear0" gradientUnits="userSpaceOnUse" x1="2582.185162" y1="769.911892" x2="2551.032085" y2="503.231859" gradientTransform="matrix(0.000000000000000078,-1.277349,1.274129,0.000000000000000078,-639.967446,3356.106074)">
<stop offset="0" style="stop-color:rgb(11.399841%,100%,49.398804%);stop-opacity:1;"/>
<stop offset="0.0359548" style="stop-color:rgb(11.399841%,100%,49.398804%);stop-opacity:1;"/>
<stop offset="0.25" style="stop-color:rgb(11.399841%,100%,49.398804%);stop-opacity:1;"/>
<stop offset="0.253906" style="stop-color:rgb(11.851501%,99.841309%,49.147034%);stop-opacity:1;"/>
<stop offset="0.257812" style="stop-color:rgb(12.303162%,99.682617%,48.895264%);stop-opacity:1;"/>
<stop offset="0.261719" style="stop-color:rgb(13.056946%,99.41864%,48.474121%);stop-opacity:1;"/>
<stop offset="0.265625" style="stop-color:rgb(13.812256%,99.154663%,48.054504%);stop-opacity:1;"/>
<stop offset="0.269531" style="stop-color:rgb(14.56604%,98.890686%,47.633362%);stop-opacity:1;"/>
<stop offset="0.273438" style="stop-color:rgb(15.319824%,98.628235%,47.213745%);stop-opacity:1;"/>
<stop offset="0.277344" style="stop-color:rgb(16.073608%,98.364258%,46.792603%);stop-opacity:1;"/>
<stop offset="0.28125" style="stop-color:rgb(16.827393%,98.100281%,46.372986%);stop-opacity:1;"/>
<stop offset="0.285156" style="stop-color:rgb(17.581177%,97.836304%,45.951843%);stop-opacity:1;"/>
<stop offset="0.289062" style="stop-color:rgb(18.334961%,97.572327%,45.532227%);stop-opacity:1;"/>
<stop offset="0.292969" style="stop-color:rgb(19.088745%,97.30835%,45.111084%);stop-opacity:1;"/>
<stop offset="0.296875" style="stop-color:rgb(19.844055%,97.044373%,44.691467%);stop-opacity:1;"/>
<stop offset="0.300781" style="stop-color:rgb(20.597839%,96.780396%,44.270325%);stop-opacity:1;"/>
<stop offset="0.304688" style="stop-color:rgb(21.351624%,96.516418%,43.850708%);stop-opacity:1;"/>
<stop offset="0.308594" style="stop-color:rgb(22.105408%,96.252441%,43.429565%);stop-opacity:1;"/>
<stop offset="0.3125" style="stop-color:rgb(22.859192%,95.98999%,43.009949%);stop-opacity:1;"/>
<stop offset="0.316406" style="stop-color:rgb(23.612976%,95.726013%,42.588806%);stop-opacity:1;"/>
<stop offset="0.320313" style="stop-color:rgb(24.368286%,95.462036%,42.169189%);stop-opacity:1;"/>
<stop offset="0.324219" style="stop-color:rgb(25.12207%,95.198059%,41.748047%);stop-opacity:1;"/>
<stop offset="0.328125" style="stop-color:rgb(25.875854%,94.934082%,41.32843%);stop-opacity:1;"/>
<stop offset="0.332031" style="stop-color:rgb(26.629639%,94.670105%,40.907288%);stop-opacity:1;"/>
<stop offset="0.335937" style="stop-color:rgb(27.383423%,94.406128%,40.486145%);stop-opacity:1;"/>
<stop offset="0.339844" style="stop-color:rgb(28.137207%,94.142151%,40.065002%);stop-opacity:1;"/>
<stop offset="0.34375" style="stop-color:rgb(28.892517%,93.878174%,39.645386%);stop-opacity:1;"/>
<stop offset="0.347656" style="stop-color:rgb(29.646301%,93.614197%,39.224243%);stop-opacity:1;"/>
<stop offset="0.351562" style="stop-color:rgb(30.400085%,93.351746%,38.804626%);stop-opacity:1;"/>
<stop offset="0.355469" style="stop-color:rgb(31.15387%,93.087769%,38.383484%);stop-opacity:1;"/>
<stop offset="0.359375" style="stop-color:rgb(31.907654%,92.823792%,37.963867%);stop-opacity:1;"/>
<stop offset="0.363281" style="stop-color:rgb(32.661438%,92.559814%,37.542725%);stop-opacity:1;"/>
<stop offset="0.367187" style="stop-color:rgb(33.415222%,92.295837%,37.123108%);stop-opacity:1;"/>
<stop offset="0.371094" style="stop-color:rgb(34.169006%,92.03186%,36.701965%);stop-opacity:1;"/>
<stop offset="0.375" style="stop-color:rgb(34.924316%,91.767883%,36.282349%);stop-opacity:1;"/>
<stop offset="0.378906" style="stop-color:rgb(35.678101%,91.503906%,35.861206%);stop-opacity:1;"/>
<stop offset="0.382812" style="stop-color:rgb(36.431885%,91.239929%,35.441589%);stop-opacity:1;"/>
<stop offset="0.386719" style="stop-color:rgb(37.185669%,90.975952%,35.020447%);stop-opacity:1;"/>
<stop offset="0.390625" style="stop-color:rgb(37.939453%,90.713501%,34.60083%);stop-opacity:1;"/>
<stop offset="0.394531" style="stop-color:rgb(38.693237%,90.449524%,34.179688%);stop-opacity:1;"/>
<stop offset="0.398437" style="stop-color:rgb(39.448547%,90.185547%,33.760071%);stop-opacity:1;"/>
<stop offset="0.402344" style="stop-color:rgb(40.202332%,89.92157%,33.338928%);stop-opacity:1;"/>
<stop offset="0.40625" style="stop-color:rgb(40.956116%,89.657593%,32.919312%);stop-opacity:1;"/>
<stop offset="0.410156" style="stop-color:rgb(41.7099%,89.393616%,32.498169%);stop-opacity:1;"/>
<stop offset="0.414062" style="stop-color:rgb(42.463684%,89.129639%,32.078552%);stop-opacity:1;"/>
<stop offset="0.417969" style="stop-color:rgb(43.217468%,88.865662%,31.65741%);stop-opacity:1;"/>
<stop offset="0.421875" style="stop-color:rgb(43.971252%,88.60321%,31.237793%);stop-opacity:1;"/>
<stop offset="0.425781" style="stop-color:rgb(44.725037%,88.339233%,30.81665%);stop-opacity:1;"/>
<stop offset="0.429688" style="stop-color:rgb(45.480347%,88.075256%,30.397034%);stop-opacity:1;"/>
<stop offset="0.433594" style="stop-color:rgb(46.234131%,87.811279%,29.975891%);stop-opacity:1;"/>
<stop offset="0.4375" style="stop-color:rgb(46.987915%,87.547302%,29.556274%);stop-opacity:1;"/>
<stop offset="0.441406" style="stop-color:rgb(47.741699%,87.283325%,29.135132%);stop-opacity:1;"/>
<stop offset="0.445312" style="stop-color:rgb(48.495483%,87.019348%,28.715515%);stop-opacity:1;"/>
<stop offset="0.449219" style="stop-color:rgb(49.249268%,86.755371%,28.294373%);stop-opacity:1;"/>
<stop offset="0.453125" style="stop-color:rgb(50.004578%,86.491394%,27.874756%);stop-opacity:1;"/>
<stop offset="0.457031" style="stop-color:rgb(50.758362%,86.227417%,27.453613%);stop-opacity:1;"/>
<stop offset="0.460938" style="stop-color:rgb(51.512146%,85.964966%,27.033997%);stop-opacity:1;"/>
<stop offset="0.464844" style="stop-color:rgb(52.26593%,85.700989%,26.612854%);stop-opacity:1;"/>
<stop offset="0.46875" style="stop-color:rgb(53.019714%,85.437012%,26.193237%);stop-opacity:1;"/>
<stop offset="0.472656" style="stop-color:rgb(53.773499%,85.173035%,25.772095%);stop-opacity:1;"/>
<stop offset="0.476563" style="stop-color:rgb(54.527283%,84.909058%,25.352478%);stop-opacity:1;"/>
<stop offset="0.480469" style="stop-color:rgb(55.281067%,84.645081%,24.931335%);stop-opacity:1;"/>
<stop offset="0.484375" style="stop-color:rgb(56.036377%,84.381104%,24.511719%);stop-opacity:1;"/>
<stop offset="0.488281" style="stop-color:rgb(56.790161%,84.117126%,24.090576%);stop-opacity:1;"/>
<stop offset="0.492187" style="stop-color:rgb(57.543945%,83.853149%,23.670959%);stop-opacity:1;"/>
<stop offset="0.496094" style="stop-color:rgb(58.297729%,83.589172%,23.249817%);stop-opacity:1;"/>
<stop offset="0.5" style="stop-color:rgb(59.051514%,83.326721%,22.8302%);stop-opacity:1;"/>
<stop offset="0.503906" style="stop-color:rgb(59.805298%,83.062744%,22.409058%);stop-opacity:1;"/>
<stop offset="0.507812" style="stop-color:rgb(60.560608%,82.798767%,21.989441%);stop-opacity:1;"/>
<stop offset="0.511719" style="stop-color:rgb(61.314392%,82.53479%,21.568298%);stop-opacity:1;"/>
<stop offset="0.515625" style="stop-color:rgb(62.068176%,82.270813%,21.148682%);stop-opacity:1;"/>
<stop offset="0.519531" style="stop-color:rgb(62.82196%,82.006836%,20.727539%);stop-opacity:1;"/>
<stop offset="0.523437" style="stop-color:rgb(63.575745%,81.742859%,20.307922%);stop-opacity:1;"/>
<stop offset="0.527344" style="stop-color:rgb(64.329529%,81.478882%,19.88678%);stop-opacity:1;"/>
<stop offset="0.53125" style="stop-color:rgb(65.083313%,81.214905%,19.467163%);stop-opacity:1;"/>
<stop offset="0.535156" style="stop-color:rgb(65.837097%,80.950928%,19.046021%);stop-opacity:1;"/>
<stop offset="0.539062" style="stop-color:rgb(66.592407%,80.688477%,18.626404%);stop-opacity:1;"/>
<stop offset="0.542969" style="stop-color:rgb(67.346191%,80.4245%,18.205261%);stop-opacity:1;"/>
<stop offset="0.546875" style="stop-color:rgb(68.099976%,80.160522%,17.785645%);stop-opacity:1;"/>
<stop offset="0.550781" style="stop-color:rgb(68.85376%,79.896545%,17.364502%);stop-opacity:1;"/>
<stop offset="0.554687" style="stop-color:rgb(69.607544%,79.632568%,16.944885%);stop-opacity:1;"/>
<stop offset="0.558594" style="stop-color:rgb(70.361328%,79.368591%,16.523743%);stop-opacity:1;"/>
<stop offset="0.5625" style="stop-color:rgb(71.116638%,79.104614%,16.104126%);stop-opacity:1;"/>
<stop offset="0.566406" style="stop-color:rgb(71.870422%,78.840637%,15.682983%);stop-opacity:1;"/>
<stop offset="0.570312" style="stop-color:rgb(72.624207%,78.578186%,15.261841%);stop-opacity:1;"/>
<stop offset="0.574219" style="stop-color:rgb(73.377991%,78.314209%,14.840698%);stop-opacity:1;"/>
<stop offset="0.578125" style="stop-color:rgb(74.131775%,78.050232%,14.421082%);stop-opacity:1;"/>
<stop offset="0.582031" style="stop-color:rgb(74.885559%,77.786255%,13.999939%);stop-opacity:1;"/>
<stop offset="0.585937" style="stop-color:rgb(75.640869%,77.522278%,13.580322%);stop-opacity:1;"/>
<stop offset="0.589844" style="stop-color:rgb(76.394653%,77.258301%,13.15918%);stop-opacity:1;"/>
<stop offset="0.59375" style="stop-color:rgb(77.148438%,76.994324%,12.739563%);stop-opacity:1;"/>
<stop offset="0.597656" style="stop-color:rgb(77.902222%,76.730347%,12.31842%);stop-opacity:1;"/>
<stop offset="0.601562" style="stop-color:rgb(78.656006%,76.46637%,11.898804%);stop-opacity:1;"/>
<stop offset="0.605469" style="stop-color:rgb(79.40979%,76.202393%,11.477661%);stop-opacity:1;"/>
<stop offset="0.609375" style="stop-color:rgb(80.163574%,75.939941%,11.058044%);stop-opacity:1;"/>
<stop offset="0.613281" style="stop-color:rgb(80.917358%,75.675964%,10.636902%);stop-opacity:1;"/>
<stop offset="0.617188" style="stop-color:rgb(81.672668%,75.411987%,10.217285%);stop-opacity:1;"/>
<stop offset="0.621094" style="stop-color:rgb(82.426453%,75.14801%,9.796143%);stop-opacity:1;"/>
<stop offset="0.625" style="stop-color:rgb(83.180237%,74.884033%,9.376526%);stop-opacity:1;"/>
<stop offset="0.628906" style="stop-color:rgb(83.934021%,74.620056%,8.955383%);stop-opacity:1;"/>
<stop offset="0.632812" style="stop-color:rgb(84.687805%,74.356079%,8.535767%);stop-opacity:1;"/>
<stop offset="0.636719" style="stop-color:rgb(85.441589%,74.092102%,8.114624%);stop-opacity:1;"/>
<stop offset="0.640625" style="stop-color:rgb(86.196899%,73.828125%,7.695007%);stop-opacity:1;"/>
<stop offset="0.644531" style="stop-color:rgb(86.950684%,73.564148%,7.273865%);stop-opacity:1;"/>
<stop offset="0.648438" style="stop-color:rgb(87.704468%,73.301697%,6.854248%);stop-opacity:1;"/>
<stop offset="0.652344" style="stop-color:rgb(88.458252%,73.03772%,6.433105%);stop-opacity:1;"/>
<stop offset="0.65625" style="stop-color:rgb(89.212036%,72.773743%,6.013489%);stop-opacity:1;"/>
<stop offset="0.660156" style="stop-color:rgb(89.96582%,72.509766%,5.592346%);stop-opacity:1;"/>
<stop offset="0.664062" style="stop-color:rgb(90.719604%,72.245789%,5.172729%);stop-opacity:1;"/>
<stop offset="0.667969" style="stop-color:rgb(91.473389%,71.981812%,4.751587%);stop-opacity:1;"/>
<stop offset="0.671875" style="stop-color:rgb(92.228699%,71.717834%,4.33197%);stop-opacity:1;"/>
<stop offset="0.675781" style="stop-color:rgb(92.982483%,71.453857%,3.910828%);stop-opacity:1;"/>
<stop offset="0.679687" style="stop-color:rgb(93.736267%,71.18988%,3.491211%);stop-opacity:1;"/>
<stop offset="0.683594" style="stop-color:rgb(94.490051%,70.925903%,3.070068%);stop-opacity:1;"/>
<stop offset="0.6875" style="stop-color:rgb(95.243835%,70.663452%,2.650452%);stop-opacity:1;"/>
<stop offset="0.691406" style="stop-color:rgb(95.99762%,70.399475%,2.229309%);stop-opacity:1;"/>
<stop offset="0.695312" style="stop-color:rgb(96.75293%,70.135498%,1.809692%);stop-opacity:1;"/>
<stop offset="0.699219" style="stop-color:rgb(97.506714%,69.871521%,1.38855%);stop-opacity:1;"/>
<stop offset="0.703125" style="stop-color:rgb(98.260498%,69.607544%,0.968933%);stop-opacity:1;"/>
<stop offset="0.707031" style="stop-color:rgb(99.014282%,69.343567%,0.547791%);stop-opacity:1;"/>
<stop offset="0.710937" style="stop-color:rgb(99.768066%,69.07959%,0.128174%);stop-opacity:1;"/>
<stop offset="0.71875" style="stop-color:rgb(99.884033%,69.038391%,0.0640869%);stop-opacity:1;"/>
<stop offset="0.75" style="stop-color:rgb(100%,68.998718%,0%);stop-opacity:1;"/>
<stop offset="0.964045" style="stop-color:rgb(100%,68.998718%,0%);stop-opacity:1;"/>
<stop offset="1" style="stop-color:rgb(100%,68.998718%,0%);stop-opacity:1;"/>
</linearGradient>
<clipPath id="clip3">
  <path d="M 125.410156 0 L 211.683594 0 L 211.683594 107 L 125.410156 107 Z M 125.410156 0 "/>
</clipPath>
</defs>
<g id="surface1">
<g clip-path="url(#clip1)" clip-rule="nonzero">
<g clip-path="url(#clip2)" clip-rule="nonzero">
<path style=" stroke:none;fill-rule:nonzero;fill:url(#linear0);" d="M 2.230469 106.277344 L 334.269531 106.277344 L 334.269531 0 L 2.230469 0 Z M 2.230469 106.277344 "/>
</g>
</g>
<path style=" stroke:none;fill-rule:nonzero;fill:rgb(0%,29.019165%,67.83905%);fill-opacity:1;" d="M 168.554688 85.273438 L 168.554688 1.480469 C 168.554688 1.480469 210.207031 57.300781 210.207031 88.769531 C 210.207031 112.167969 168.554688 108.671875 168.554688 85.273438 Z M 168.554688 85.273438 "/>
<path style=" stroke:none;fill-rule:nonzero;fill:rgb(36.859131%,9.01947%,92.158508%);fill-opacity:1;" d="M 168.554688 78.796875 L 168.554688 85.273438 C 168.554688 108.671875 126.898438 112.167969 126.898438 88.769531 C 126.898438 57.300781 168.554688 1.480469 168.554688 1.480469 L 168.554688 60.804688 C 168.589844 60.804688 168.625 60.800781 168.660156 60.800781 C 182.511719 60.800781 189.542969 69.800781 189.542969 69.800781 C 189.542969 69.800781 182.332031 78.75 168.554688 78.796875 Z M 168.554688 78.796875 "/>
<path style=" stroke:none;fill-rule:nonzero;fill:rgb(49.409485%,85.099792%,34.118652%);fill-opacity:1;" d="M 168.554688 27.609375 C 175.601562 27.609375 181.316406 33.308594 181.316406 40.34375 C 181.316406 47.375 175.601562 53.074219 168.554688 53.074219 C 161.503906 53.074219 155.789062 47.375 155.789062 40.34375 C 155.789062 33.308594 161.503906 27.609375 168.554688 27.609375 Z M 168.554688 27.609375 "/>
<path style=" stroke:none;fill-rule:nonzero;fill:rgb(100%,8.628845%,8.628845%);fill-opacity:1;" d="M 168.554688 60.761719 C 173.558594 60.761719 177.613281 64.808594 177.613281 69.800781 C 177.613281 74.792969 173.558594 78.835938 168.554688 78.835938 C 163.550781 78.835938 159.492188 74.792969 159.492188 69.800781 C 159.492188 64.808594 163.550781 60.761719 168.554688 60.761719 Z M 168.554688 60.761719 "/>
<g clip-path="url(#clip3)" clip-rule="nonzero">
<path style=" stroke:none;fill-rule:nonzero;fill:rgb(45.098877%,45.098877%,45.098877%);fill-opacity:1;" d="M 190.664062 32.582031 C 180.328125 14.824219 169.847656 0.734375 169.742188 0.597656 C 169.726562 0.574219 169.707031 0.558594 169.691406 0.535156 C 169.660156 0.5 169.628906 0.460938 169.597656 0.429688 C 169.570312 0.40625 169.542969 0.382812 169.519531 0.363281 C 169.484375 0.332031 169.453125 0.304688 169.421875 0.28125 C 169.390625 0.257812 169.359375 0.242188 169.328125 0.222656 C 169.292969 0.199219 169.257812 0.179688 169.222656 0.160156 C 169.1875 0.140625 169.148438 0.128906 169.109375 0.113281 C 169.082031 0.101562 169.050781 0.0859375 169.019531 0.0742188 C 169.015625 0.0742188 169.011719 0.0742188 169.007812 0.0742188 C 168.96875 0.0585938 168.929688 0.0507812 168.886719 0.0429688 C 168.851562 0.0351562 168.816406 0.0234375 168.78125 0.0195312 C 168.746094 0.0117188 168.710938 0.0117188 168.675781 0.0078125 C 168.636719 0.0078125 168.59375 0 168.550781 0 C 168.523438 0 168.492188 0.00390625 168.460938 0.0078125 C 168.414062 0.0117188 168.367188 0.0117188 168.324219 0.0195312 C 168.292969 0.0234375 168.265625 0.03125 168.234375 0.0390625 C 168.1875 0.0507812 168.140625 0.0585938 168.097656 0.0742188 C 168.09375 0.0742188 168.089844 0.0742188 168.085938 0.0742188 C 168.058594 0.0859375 168.03125 0.0976562 168.003906 0.109375 C 167.960938 0.125 167.921875 0.140625 167.882812 0.160156 C 167.847656 0.179688 167.816406 0.199219 167.785156 0.21875 C 167.75 0.238281 167.71875 0.257812 167.6875 0.28125 C 167.652344 0.304688 167.621094 0.332031 167.589844 0.359375 C 167.5625 0.382812 167.535156 0.402344 167.511719 0.429688 C 167.476562 0.460938 167.445312 0.5 167.417969 0.535156 C 167.398438 0.554688 167.378906 0.574219 167.363281 0.597656 C 167.257812 0.734375 156.78125 14.824219 146.445312 32.582031 C 132.492188 56.550781 125.417969 75.453125 125.417969 88.769531 C 125.417969 94.273438 127.574219 98.835938 131.65625 101.953125 C 135.195312 104.660156 140.078125 106.148438 145.410156 106.148438 C 151.480469 106.148438 157.542969 104.222656 162.042969 100.867188 C 165.042969 98.628906 167.234375 95.898438 168.554688 92.785156 C 169.875 95.898438 172.0625 98.628906 175.066406 100.867188 C 179.5625 104.222656 185.625 106.148438 191.699219 106.148438 C 197.027344 106.148438 201.910156 104.660156 205.449219 101.953125 C 209.53125 98.835938 211.691406 94.273438 211.691406 88.769531 C 211.691406 75.453125 204.617188 56.550781 190.664062 32.582031 Z M 168.445312 77.320312 C 168.191406 77.320312 167.9375 77.3125 167.6875 77.308594 C 163.917969 76.878906 160.976562 73.675781 160.976562 69.800781 C 160.976562 65.941406 163.894531 62.75 167.640625 62.300781 C 167.976562 62.289062 168.316406 62.28125 168.660156 62.28125 C 168.914062 62.28125 169.167969 62.285156 169.417969 62.292969 C 173.191406 62.722656 176.128906 65.925781 176.128906 69.800781 C 176.128906 73.660156 173.214844 76.847656 169.46875 77.300781 C 169.132812 77.3125 168.792969 77.320312 168.445312 77.320312 Z M 167.40625 59.347656 Z M 167.796875 54.527344 C 167.800781 54.527344 167.808594 54.527344 167.8125 54.527344 C 167.808594 54.527344 167.800781 54.527344 167.796875 54.527344 Z M 167.976562 59.300781 C 167.972656 59.300781 167.96875 59.300781 167.964844 59.300781 C 167.96875 59.300781 167.972656 59.300781 167.976562 59.300781 Z M 160.089844 76.0625 C 154.628906 74.351562 151.09375 71.324219 149.582031 69.808594 C 151.101562 68.308594 154.628906 65.324219 160.046875 63.597656 C 158.769531 65.339844 158.011719 67.480469 158.011719 69.800781 C 158.011719 72.144531 158.785156 74.3125 160.089844 76.0625 Z M 177.019531 63.539062 C 182.476562 65.25 186.007812 68.269531 187.523438 69.789062 C 185.992188 71.285156 182.460938 74.261719 177.070312 75.988281 C 178.34375 74.25 179.097656 72.113281 179.097656 69.800781 C 179.097656 67.457031 178.324219 65.289062 177.019531 63.539062 Z M 169.660156 59.339844 Z M 169.109375 59.296875 C 169.113281 59.296875 169.117188 59.296875 169.117188 59.296875 C 169.117188 59.296875 169.113281 59.296875 169.109375 59.296875 Z M 169.292969 54.527344 C 169.300781 54.527344 169.304688 54.527344 169.308594 54.527344 C 169.304688 54.527344 169.300781 54.527344 169.292969 54.527344 Z M 160.578125 48.296875 C 158.449219 46.171875 157.273438 43.347656 157.273438 40.34375 C 157.273438 37.335938 158.449219 34.511719 160.578125 32.386719 C 162.777344 30.191406 165.664062 29.09375 168.554688 29.09375 C 171.441406 29.09375 174.332031 30.191406 176.53125 32.386719 C 178.660156 34.511719 179.832031 37.335938 179.832031 40.34375 C 179.832031 43.347656 178.660156 46.171875 176.53125 48.296875 C 172.132812 52.6875 164.976562 52.6875 160.578125 48.296875 Z M 145.410156 103.1875 C 140.726562 103.1875 136.484375 101.914062 133.460938 99.605469 C 130.09375 97.03125 128.382812 93.382812 128.382812 88.769531 C 128.382812 62.769531 157.910156 19.019531 167.070312 6.074219 L 167.070312 26.214844 C 163.929688 26.542969 160.878906 27.898438 158.480469 30.292969 C 155.789062 32.976562 154.308594 36.546875 154.308594 40.34375 C 154.308594 44.136719 155.789062 47.707031 158.480469 50.390625 C 160.878906 52.785156 163.929688 54.144531 167.070312 54.46875 L 167.070312 59.363281 C 153.710938 60 146.710938 68.5 146.40625 68.875 C 145.976562 69.410156 145.972656 70.167969 146.394531 70.710938 C 146.691406 71.089844 153.570312 79.691406 167.070312 80.25 L 167.070312 85.273438 C 167.070312 93.957031 159.476562 103.1875 145.410156 103.1875 Z M 167.445312 80.257812 Z M 167.996094 80.300781 C 167.992188 80.300781 167.988281 80.300781 167.984375 80.300781 C 167.988281 80.300781 167.992188 80.300781 167.996094 80.300781 Z M 169.699219 80.253906 Z M 169.128906 80.300781 C 169.132812 80.300781 169.136719 80.300781 169.140625 80.300781 C 169.136719 80.300781 169.132812 80.300781 169.128906 80.300781 Z M 203.644531 99.605469 C 200.621094 101.914062 196.378906 103.1875 191.699219 103.1875 C 177.628906 103.1875 170.035156 93.957031 170.035156 85.273438 L 170.035156 80.238281 C 183.394531 79.597656 190.398438 71.101562 190.699219 70.726562 C 191.128906 70.191406 191.136719 69.429688 190.710938 68.890625 C 190.417969 68.511719 183.535156 59.90625 170.035156 59.351562 L 170.035156 54.46875 C 173.175781 54.144531 176.226562 52.785156 178.628906 50.390625 C 181.316406 47.707031 182.800781 44.136719 182.800781 40.34375 C 182.800781 36.546875 181.316406 32.976562 178.628906 30.292969 C 176.226562 27.898438 173.175781 26.539062 170.035156 26.214844 L 170.035156 6.074219 C 179.195312 19.019531 208.722656 62.769531 208.722656 88.769531 C 208.722656 93.382812 207.015625 97.03125 203.644531 99.605469 Z M 203.644531 99.605469 "/>
</g>
</g>
</svg>
